<svg width="1200" height="760" viewBox="0 0 1200 760" fill="none" xmlns="http://www.w3.org/2000/svg">
  <defs>
    <linearGradient id="bg" x1="0" y1="0" x2="1200" y2="760" gradientUnits="userSpaceOnUse">
      <stop stop-color="#020617"/>
      <stop offset="1" stop-color="#0F172A"/>
    </linearGradient>
    <linearGradient id="accent" x1="180" y1="120" x2="1020" y2="640" gradientUnits="userSpaceOnUse">
      <stop stop-color="#22D3EE"/>
      <stop offset="0.5" stop-color="#38BDF8"/>
      <stop offset="1" stop-color="#A855F7"/>
    </linearGradient>
    <pattern id="grid" width="48" height="48" patternUnits="userSpaceOnUse">
      <path d="M 48 0 H 0 V 48" stroke="#E2E8F0" stroke-opacity="0.045" stroke-width="1"/>
    </pattern>
  </defs>

  <rect width="1200" height="760" rx="32" fill="url(#bg)"/>
  <rect width="1200" height="760" rx="32" fill="url(#grid)"/>

  <text x="80" y="104" fill="#93C5FD" font-family="Inter, Segoe UI, Arial, sans-serif" font-size="18" font-weight="700" letter-spacing="2.4">AI WORKFLOW</text>
  <text x="80" y="148" fill="#F8FAFC" font-family="Inter, Segoe UI, Arial, sans-serif" font-size="46" font-weight="900">Grounded outputs, not guesswork</text>
  <text x="80" y="184" fill="#A5B4FC" font-family="Inter, Segoe UI, Arial, sans-serif" font-size="20" font-weight="500">Inputs become retrieval, reasoning, tool use, and a visible answer.</text>

  <g fill="#0B1324" stroke="#E2E8F0" stroke-opacity="0.09" stroke-width="1.5">
    <rect x="72" y="278" width="190" height="128" rx="24"/>
    <rect x="72" y="448" width="190" height="128" rx="24"/>
    <rect x="72" y="618" width="190" height="96" rx="24"/>

    <rect x="322" y="278" width="220" height="128" rx="24"/>
    <rect x="322" y="448" width="220" height="128" rx="24"/>
    <rect x="322" y="618" width="220" height="96" rx="24"/>

    <rect x="614" y="278" width="220" height="128" rx="24"/>
    <rect x="614" y="448" width="220" height="128" rx="24"/>
    <rect x="614" y="618" width="220" height="96" rx="24"/>

    <rect x="906" y="278" width="220" height="128" rx="24"/>
    <rect x="906" y="448" width="220" height="128" rx="24"/>
    <rect x="906" y="618" width="220" height="96" rx="24"/>
  </g>

  <path d="M262 342H322M542 342H614M834 342H906M262 512H322M542 512H614M834 512H906M262 664H322M542 664H614M834 664H906" stroke="url(#accent)" stroke-opacity="0.3" stroke-width="2.5" stroke-linecap="round"/>

  <text x="104" y="328" fill="#F8FAFC" font-family="Inter, Segoe UI, Arial, sans-serif" font-size="24" font-weight="800">Input</text>
  <text x="104" y="358" fill="#C7D2FE" font-family="Inter, Segoe UI, Arial, sans-serif" font-size="16">Resume</text>
  <text x="104" y="382" fill="#C7D2FE" font-family="Inter, Segoe UI, Arial, sans-serif" font-size="16">PDFs</text>
  <text x="104" y="406" fill="#C7D2FE" font-family="Inter, Segoe UI, Arial, sans-serif" font-size="16">Tasks</text>

  <text x="348" y="328" fill="#F8FAFC" font-family="Inter, Segoe UI, Arial, sans-serif" font-size="24" font-weight="800">Retrieve</text>
  <text x="348" y="358" fill="#C7D2FE" font-family="Inter, Segoe UI, Arial, sans-serif" font-size="16">Context</text>
  <text x="348" y="382" fill="#C7D2FE" font-family="Inter, Segoe UI, Arial, sans-serif" font-size="16">Embeddings</text>
  <text x="348" y="406" fill="#C7D2FE" font-family="Inter, Segoe UI, Arial, sans-serif" font-size="16">Signals</text>

  <text x="640" y="328" fill="#F8FAFC" font-family="Inter, Segoe UI, Arial, sans-serif" font-size="24" font-weight="800">Reason</text>
  <text x="640" y="358" fill="#C7D2FE" font-family="Inter, Segoe UI, Arial, sans-serif" font-size="16">Policy</text>
  <text x="640" y="382" fill="#C7D2FE" font-family="Inter, Segoe UI, Arial, sans-serif" font-size="16">Prompts</text>
  <text x="640" y="406" fill="#C7D2FE" font-family="Inter, Segoe UI, Arial, sans-serif" font-size="16">Guardrails</text>

  <text x="932" y="328" fill="#F8FAFC" font-family="Inter, Segoe UI, Arial, sans-serif" font-size="24" font-weight="800">Output</text>
  <text x="932" y="358" fill="#C7D2FE" font-family="Inter, Segoe UI, Arial, sans-serif" font-size="16">Answer</text>
  <text x="932" y="382" fill="#C7D2FE" font-family="Inter, Segoe UI, Arial, sans-serif" font-size="16">Action</text>
  <text x="932" y="406" fill="#C7D2FE" font-family="Inter, Segoe UI, Arial, sans-serif" font-size="16">Trace</text>

  <text x="104" y="498" fill="#F8FAFC" font-family="Inter, Segoe UI, Arial, sans-serif" font-size="24" font-weight="800">Retrieval</text>
  <text x="104" y="528" fill="#C7D2FE" font-family="Inter, Segoe UI, Arial, sans-serif" font-size="16">RAG</text>
  <text x="104" y="552" fill="#C7D2FE" font-family="Inter, Segoe UI, Arial, sans-serif" font-size="16">Source links</text>
  <text x="104" y="576" fill="#C7D2FE" font-family="Inter, Segoe UI, Arial, sans-serif" font-size="16">Grounding</text>

  <text x="348" y="498" fill="#F8FAFC" font-family="Inter, Segoe UI, Arial, sans-serif" font-size="24" font-weight="800">Tools</text>
  <text x="348" y="528" fill="#C7D2FE" font-family="Inter, Segoe UI, Arial, sans-serif" font-size="16">APIs</text>
  <text x="348" y="552" fill="#C7D2FE" font-family="Inter, Segoe UI, Arial, sans-serif" font-size="16">Functions</text>
  <text x="348" y="576" fill="#C7D2FE" font-family="Inter, Segoe UI, Arial, sans-serif" font-size="16">Automations</text>

  <text x="640" y="498" fill="#F8FAFC" font-family="Inter, Segoe UI, Arial, sans-serif" font-size="24" font-weight="800">State</text>
  <text x="640" y="528" fill="#C7D2FE" font-family="Inter, Segoe UI, Arial, sans-serif" font-size="16">Persistence</text>
  <text x="640" y="552" fill="#C7D2FE" font-family="Inter, Segoe UI, Arial, sans-serif" font-size="16">Auditability</text>
  <text x="640" y="576" fill="#C7D2FE" font-family="Inter, Segoe UI, Arial, sans-serif" font-size="16">Reproducibility</text>

  <text x="932" y="498" fill="#F8FAFC" font-family="Inter, Segoe UI, Arial, sans-serif" font-size="24" font-weight="800">Proof</text>
  <text x="932" y="528" fill="#C7D2FE" font-family="Inter, Segoe UI, Arial, sans-serif" font-size="16">Repo</text>
  <text x="932" y="552" fill="#C7D2FE" font-family="Inter, Segoe UI, Arial, sans-serif" font-size="16">Screenshot</text>
  <text x="932" y="576" fill="#C7D2FE" font-family="Inter, Segoe UI, Arial, sans-serif" font-size="16">Demo</text>

  <text x="104" y="656" fill="#F8FAFC" font-family="Inter, Segoe UI, Arial, sans-serif" font-size="24" font-weight="800">Decision</text>
  <text x="104" y="686" fill="#C7D2FE" font-family="Inter, Segoe UI, Arial, sans-serif" font-size="16">Visible, auditable, and useful.</text>
  <text x="640" y="656" fill="#F8FAFC" font-family="Inter, Segoe UI, Arial, sans-serif" font-size="24" font-weight="800">Delivery</text>
  <text x="640" y="686" fill="#C7D2FE" font-family="Inter, Segoe UI, Arial, sans-serif" font-size="16">Ship the product, not the prompt.</text>
</svg>
