<svg width="1200" height="800" viewBox="0 0 1200 800" fill="none" xmlns="http://www.w3.org/2000/svg">
  <defs>
    <linearGradient id="bg" x1="0" y1="0" x2="1200" y2="800" gradientUnits="userSpaceOnUse">
      <stop stop-color="#08111D"/>
      <stop offset="1" stop-color="#0B1E33"/>
    </linearGradient>
    <linearGradient id="g" x1="140" y1="620" x2="1040" y2="146" gradientUnits="userSpaceOnUse">
      <stop stop-color="#63E6BE"/>
      <stop offset="0.55" stop-color="#38BDF8"/>
      <stop offset="1" stop-color="#A855F7"/>
    </linearGradient>
    <pattern id="grid" width="60" height="60" patternUnits="userSpaceOnUse">
      <path d="M 60 0 H 0 V 60" stroke="#E2E8F0" stroke-opacity="0.04" stroke-width="1"/>
    </pattern>
  </defs>
  <rect width="1200" height="800" rx="32" fill="url(#bg)"/>
  <rect width="1200" height="800" rx="32" fill="url(#grid)"/>
  <text x="120" y="120" fill="#93C5FD" font-family="Inter, Segoe UI, Arial, sans-serif" font-size="18" font-weight="700" letter-spacing="2.4">PROBLEM-SOLVING NETWORK</text>
  <text x="120" y="164" fill="#F8FAFC" font-family="Inter, Segoe UI, Arial, sans-serif" font-size="44" font-weight="900">Patterns that stay sharp under pressure</text>
  <circle cx="600" cy="400" r="130" fill="#0F172A" stroke="url(#g)" stroke-opacity="0.6" stroke-width="2"/>
  <circle cx="600" cy="400" r="204" stroke="#93C5FD" stroke-opacity="0.14" stroke-width="2"/>
  <path d="M600 270V200M730 400H820M600 530V600M470 400H380M690 320L760 250M690 480L760 550M510 320L440 250M510 480L440 550" stroke="url(#g)" stroke-width="3" stroke-linecap="round"/>
  <g fill="#0B1324" stroke="#E2E8F0" stroke-opacity="0.12" stroke-width="2">
    <circle cx="600" cy="200" r="34"/>
    <circle cx="820" cy="400" r="34"/>
    <circle cx="600" cy="600" r="34"/>
    <circle cx="380" cy="400" r="34"/>
    <circle cx="760" cy="250" r="34"/>
    <circle cx="760" cy="550" r="34"/>
    <circle cx="440" cy="250" r="34"/>
    <circle cx="440" cy="550" r="34"/>
  </g>
  <text x="548" y="410" fill="#F8FAFC" font-family="JetBrains Mono, Consolas, monospace" font-size="30" font-weight="800">Problem solving</text>
  <g fill="#C7D2FE" font-family="Inter, Segoe UI, Arial, sans-serif" font-size="18" font-weight="700">
    <text x="570" y="206">arrays</text>
    <text x="838" y="406">graphs</text>
    <text x="558" y="636">dp</text>
    <text x="324" y="406">greedy</text>
    <text x="732" y="256">trees</text>
    <text x="724" y="576">logic</text>
    <text x="408" y="256">runtime</text>
    <text x="404" y="576">precision</text>
  </g>
</svg>
