<svg width="1200" height="800" viewBox="0 0 1200 800" fill="none" xmlns="http://www.w3.org/2000/svg">
  <defs>
    <linearGradient id="bg" x1="0" y1="0" x2="1200" y2="800" gradientUnits="userSpaceOnUse">
      <stop stop-color="#08111D"/>
      <stop offset="1" stop-color="#0B1E33"/>
    </linearGradient>
  </defs>
  <rect width="1200" height="800" rx="32" fill="url(#bg)"/>
  <g stroke="#E2E8F0" stroke-opacity="0.08">
    <path d="M120 160H1080"/>
    <path d="M120 320H1080"/>
    <path d="M120 480H1080"/>
    <path d="M120 640H1080"/>
    <path d="M220 110V690"/>
    <path d="M440 110V690"/>
    <path d="M660 110V690"/>
    <path d="M880 110V690"/>
  </g>
  <path d="M150 208C252 164 350 156 456 174C566 192 670 244 772 250C888 256 982 210 1050 164" stroke="#38BDF8" stroke-opacity="0.34" stroke-width="2" stroke-linecap="round"/>
  <path d="M150 552C260 500 362 488 466 506C572 524 668 574 782 574C898 574 992 530 1068 486" stroke="#63E6BE" stroke-opacity="0.34" stroke-width="2" stroke-linecap="round"/>
  <g fill="#0F172A" stroke="#E2E8F0" stroke-opacity="0.12" stroke-width="2">
    <circle cx="150" cy="208" r="24"/>
    <circle cx="456" cy="174" r="24"/>
    <circle cx="772" cy="250" r="24"/>
    <circle cx="1050" cy="164" r="24"/>
    <circle cx="150" cy="552" r="24"/>
    <circle cx="466" cy="506" r="24"/>
    <circle cx="782" cy="574" r="24"/>
    <circle cx="1068" cy="486" r="24"/>
  </g>
  <text x="420" y="748" fill="#93C5FD" font-family="Inter, Segoe UI, Arial, sans-serif" font-size="28" font-weight="700">Problem Solving Network</text>
</svg>
