<svg width="1200" height="680" viewBox="0 0 1200 680" fill="none" xmlns="http://www.w3.org/2000/svg">
  <defs>
    <linearGradient id="bg" x1="0" y1="0" x2="1200" y2="680" gradientUnits="userSpaceOnUse">
      <stop stop-color="#020617"/>
      <stop offset="1" stop-color="#0F172A"/>
    </linearGradient>
    <linearGradient id="accent" x1="140" y1="120" x2="1040" y2="560" gradientUnits="userSpaceOnUse">
      <stop stop-color="#22D3EE"/>
      <stop offset="0.5" stop-color="#38BDF8"/>
      <stop offset="1" stop-color="#A855F7"/>
    </linearGradient>
    <radialGradient id="glow" cx="0" cy="0" r="1" gradientUnits="userSpaceOnUse" gradientTransform="translate(600 340) rotate(90) scale(240 240)">
      <stop stop-color="#38BDF8" stop-opacity="0.34"/>
      <stop offset="1" stop-color="#38BDF8" stop-opacity="0"/>
    </radialGradient>
    <pattern id="grid" width="44" height="44" patternUnits="userSpaceOnUse">
      <path d="M 44 0 H 0 V 44" stroke="#E2E8F0" stroke-opacity="0.045" stroke-width="1"/>
    </pattern>
  </defs>

  <rect width="1200" height="680" rx="32" fill="url(#bg)"/>
  <rect width="1200" height="680" rx="32" fill="url(#grid)"/>
  <circle cx="600" cy="340" r="240" fill="url(#glow)"/>

  <text x="78" y="104" fill="#93C5FD" font-family="Inter, Segoe UI, Arial, sans-serif" font-size="18" font-weight="700" letter-spacing="2.4">TECH ORBIT</text>
  <text x="78" y="148" fill="#F8FAFC" font-family="Inter, Segoe UI, Arial, sans-serif" font-size="44" font-weight="900">One core, many systems.</text>
  <text x="78" y="182" fill="#A5B4FC" font-family="Inter, Segoe UI, Arial, sans-serif" font-size="20" font-weight="500">A visual shorthand for product, infrastructure, and AI working together.</text>

  <g stroke="url(#accent)" stroke-opacity="0.22" fill="none">
    <circle cx="600" cy="350" r="74" stroke-width="2"/>
    <circle cx="600" cy="350" r="142" stroke-width="2"/>
    <circle cx="600" cy="350" r="214" stroke-width="2"/>
  </g>

  <g fill="#0B1324" stroke="#E2E8F0" stroke-opacity="0.09" stroke-width="1.5">
    <rect x="536" y="286" width="128" height="128" rx="28"/>
    <rect x="520" y="112" width="160" height="62" rx="20"/>
    <rect x="742" y="196" width="160" height="62" rx="20"/>
    <rect x="782" y="394" width="160" height="62" rx="20"/>
    <rect x="520" y="498" width="160" height="62" rx="20"/>
    <rect x="258" y="394" width="160" height="62" rx="20"/>
    <rect x="220" y="196" width="160" height="62" rx="20"/>
  </g>

  <path d="M600 350V174M600 350H822M600 350V520M600 350H338M600 350L680 240M600 350L516 450M600 350L696 456M600 350L498 246" stroke="#93C5FD" stroke-opacity="0.3" stroke-width="2" stroke-linecap="round"/>

  <circle cx="600" cy="350" r="36" fill="url(#accent)"/>
  <text x="581" y="359" fill="#F8FAFC" font-family="JetBrains Mono, Consolas, monospace" font-size="20" font-weight="800">AI</text>

  <text x="556" y="140" fill="#F8FAFC" font-family="Inter, Segoe UI, Arial, sans-serif" font-size="18" font-weight="800">Product</text>
  <text x="776" y="224" fill="#F8FAFC" font-family="Inter, Segoe UI, Arial, sans-serif" font-size="18" font-weight="800">Backend</text>
  <text x="822" y="422" fill="#F8FAFC" font-family="Inter, Segoe UI, Arial, sans-serif" font-size="18" font-weight="800">Delivery</text>
  <text x="556" y="534" fill="#F8FAFC" font-family="Inter, Segoe UI, Arial, sans-serif" font-size="18" font-weight="800">Data</text>
  <text x="288" y="422" fill="#F8FAFC" font-family="Inter, Segoe UI, Arial, sans-serif" font-size="18" font-weight="800">Systems</text>
  <text x="238" y="224" fill="#F8FAFC" font-family="Inter, Segoe UI, Arial, sans-serif" font-size="18" font-weight="800">Automation</text>

  <text x="548" y="404" fill="#C7D2FE" font-family="Inter, Segoe UI, Arial, sans-serif" font-size="15">Orchestrated output</text>
</svg>
