<svg width="1400" height="900" viewBox="0 0 1400 900" fill="none" xmlns="http://www.w3.org/2000/svg">
  <defs>
    <linearGradient id="bg" x1="0" y1="0" x2="1400" y2="900" gradientUnits="userSpaceOnUse">
      <stop stop-color="#07111F"/>
      <stop offset="1" stop-color="#0B1E33"/>
    </linearGradient>
    <linearGradient id="g" x1="120" y1="120" x2="1280" y2="720" gradientUnits="userSpaceOnUse">
      <stop stop-color="#63E6BE"/>
      <stop offset="0.5" stop-color="#38BDF8"/>
      <stop offset="1" stop-color="#A855F7"/>
    </linearGradient>
    <pattern id="grid" width="48" height="48" patternUnits="userSpaceOnUse">
      <path d="M 48 0 H 0 V 48" stroke="#E2E8F0" stroke-opacity="0.04" stroke-width="1"/>
    </pattern>
  </defs>
  <rect width="1400" height="900" rx="36" fill="url(#bg)"/>
  <rect width="1400" height="900" rx="36" fill="url(#grid)"/>
  <text x="120" y="118" fill="#93C5FD" font-family="Inter, Segoe UI, Arial, sans-serif" font-size="18" font-weight="700" letter-spacing="2.4">METRICS DASHBOARD</text>
  <text x="120" y="164" fill="#F8FAFC" font-family="Inter, Segoe UI, Arial, sans-serif" font-size="44" font-weight="900">Proof grouped like a product dashboard</text>

  <g>
    <rect x="120" y="214" width="310" height="132" rx="24" fill="#0B1324" fill-opacity="0.88" stroke="#63E6BE" stroke-opacity="0.18"/>
    <rect x="446" y="214" width="310" height="132" rx="24" fill="#0B1324" fill-opacity="0.88" stroke="#38BDF8" stroke-opacity="0.18"/>
    <rect x="772" y="214" width="508" height="132" rx="24" fill="#0B1324" fill-opacity="0.88" stroke="#A855F7" stroke-opacity="0.18"/>
  </g>
  <text x="148" y="260" fill="#63E6BE" font-family="JetBrains Mono, Consolas, monospace" font-size="16" font-weight="700">Projects</text>
  <text x="148" y="300" fill="#F8FAFC" font-family="Inter, Segoe UI, Arial, sans-serif" font-size="34" font-weight="900">4</text>
  <text x="148" y="332" fill="#C7D2FE" font-family="Inter, Segoe UI, Arial, sans-serif" font-size="17">case studies with screenshots</text>
  <text x="474" y="260" fill="#38BDF8" font-family="JetBrains Mono, Consolas, monospace" font-size="16" font-weight="700">Delivery</text>
  <text x="474" y="300" fill="#F8FAFC" font-family="Inter, Segoe UI, Arial, sans-serif" font-size="34" font-weight="900">4 repos + 4 demos</text>
  <text x="474" y="332" fill="#C7D2FE" font-family="Inter, Segoe UI, Arial, sans-serif" font-size="17">public code and deployed surfaces</text>
  <text x="800" y="260" fill="#A855F7" font-family="JetBrains Mono, Consolas, monospace" font-size="16" font-weight="700">Problem solving</text>
  <text x="800" y="300" fill="#F8FAFC" font-family="Inter, Segoe UI, Arial, sans-serif" font-size="34" font-weight="900">CodeChef 4★ · 1800+ solved</text>
  <text x="800" y="332" fill="#C7D2FE" font-family="Inter, Segoe UI, Arial, sans-serif" font-size="17">algorithmic consistency across core patterns</text>

  <rect x="120" y="400" width="616" height="316" rx="28" fill="#0B1324" fill-opacity="0.86" stroke="#E2E8F0" stroke-opacity="0.08"/>
  <text x="148" y="444" fill="#93C5FD" font-family="Inter, Segoe UI, Arial, sans-serif" font-size="17" font-weight="700">Contribution framing</text>
  <g fill="#63E6BE">
    <rect x="148" y="480" width="28" height="28" rx="8"/>
    <rect x="184" y="480" width="28" height="28" rx="8" fill-opacity="0.82"/>
    <rect x="220" y="480" width="28" height="28" rx="8" fill-opacity="0.68"/>
    <rect x="256" y="480" width="28" height="28" rx="8" fill-opacity="0.54"/>
    <rect x="292" y="480" width="28" height="28" rx="8" fill-opacity="0.4"/>
    <rect x="328" y="480" width="28" height="28" rx="8" fill-opacity="0.26"/>
    <rect x="148" y="516" width="28" height="28" rx="8" fill-opacity="0.3"/>
    <rect x="184" y="516" width="28" height="28" rx="8" fill-opacity="0.44"/>
    <rect x="220" y="516" width="28" height="28" rx="8" fill-opacity="0.58"/>
    <rect x="256" y="516" width="28" height="28" rx="8" fill-opacity="0.72"/>
    <rect x="292" y="516" width="28" height="28" rx="8" fill-opacity="0.86"/>
    <rect x="328" y="516" width="28" height="28" rx="8"/>
    <rect x="148" y="552" width="28" height="28" rx="8" fill-opacity="0.18"/>
    <rect x="184" y="552" width="28" height="28" rx="8" fill-opacity="0.3"/>
    <rect x="220" y="552" width="28" height="28" rx="8" fill-opacity="0.44"/>
    <rect x="256" y="552" width="28" height="28" rx="8" fill-opacity="0.58"/>
    <rect x="292" y="552" width="28" height="28" rx="8" fill-opacity="0.72"/>
    <rect x="328" y="552" width="28" height="28" rx="8" fill-opacity="0.86"/>
  </g>
  <path d="M460 628C520 592 576 576 628 570C680 564 732 566 794 540" stroke="url(#g)" stroke-width="4" stroke-linecap="round"/>
  <circle cx="460" cy="628" r="8" fill="#63E6BE"/>
  <circle cx="628" cy="570" r="8" fill="#38BDF8"/>
  <circle cx="794" cy="540" r="8" fill="#A855F7"/>

  <rect x="772" y="400" width="508" height="316" rx="28" fill="#0B1324" fill-opacity="0.86" stroke="#E2E8F0" stroke-opacity="0.08"/>
  <text x="800" y="444" fill="#93C5FD" font-family="Inter, Segoe UI, Arial, sans-serif" font-size="17" font-weight="700">Signal summary</text>
  <path d="M800 486H1248" stroke="#E2E8F0" stroke-opacity="0.08"/>
  <text x="800" y="526" fill="#F8FAFC" font-family="Inter, Segoe UI, Arial, sans-serif" font-size="22" font-weight="800">Each major claim is backed by a repo, a demo, or a diagram.</text>
  <text x="800" y="562" fill="#C7D2FE" font-family="Inter, Segoe UI, Arial, sans-serif" font-size="17">This keeps the portfolio readable for recruiters while staying credible for engineers.</text>
  <text x="800" y="596" fill="#C7D2FE" font-family="Inter, Segoe UI, Arial, sans-serif" font-size="17">The result is a dashboard, not a wall of badges.</text>
</svg>
