<svg width="1400" height="900" viewBox="0 0 1400 900" fill="none" xmlns="http://www.w3.org/2000/svg">
  <defs>
    <linearGradient id="bg" x1="0" y1="0" x2="1400" y2="900" gradientUnits="userSpaceOnUse">
      <stop stop-color="#07111F"/>
      <stop offset="1" stop-color="#0B1E33"/>
    </linearGradient>
    <linearGradient id="g" x1="120" y1="120" x2="1280" y2="720" gradientUnits="userSpaceOnUse">
      <stop stop-color="#63E6BE"/>
      <stop offset="0.5" stop-color="#38BDF8"/>
      <stop offset="1" stop-color="#F59E0B"/>
    </linearGradient>
  </defs>
  <rect width="1400" height="900" rx="36" fill="url(#bg)"/>
  <g stroke="#E2E8F0" stroke-opacity="0.07">
    <path d="M120 140H1280"/>
    <path d="M120 280H1280"/>
    <path d="M120 420H1280"/>
    <path d="M120 560H1280"/>
    <path d="M120 700H1280"/>
    <path d="M120 140V700"/>
    <path d="M380 140V700"/>
    <path d="M640 140V700"/>
    <path d="M900 140V700"/>
    <path d="M1160 140V700"/>
  </g>
  <g>
    <rect x="150" y="182" width="200" height="96" rx="22" fill="#0B1324" stroke="#63E6BE" stroke-opacity="0.22"/>
    <rect x="150" y="322" width="200" height="96" rx="22" fill="#0B1324" stroke="#38BDF8" stroke-opacity="0.22"/>
    <rect x="150" y="462" width="200" height="96" rx="22" fill="#0B1324" stroke="#F59E0B" stroke-opacity="0.22"/>
    <rect x="150" y="602" width="200" height="96" rx="22" fill="#0B1324" stroke="#E2E8F0" stroke-opacity="0.08"/>
  </g>
  <text x="182" y="240" fill="#F8FAFC" font-family="Inter, Segoe UI, Arial, sans-serif" font-size="28" font-weight="800">Languages</text>
  <text x="182" y="380" fill="#F8FAFC" font-family="Inter, Segoe UI, Arial, sans-serif" font-size="28" font-weight="800">Frontend</text>
  <text x="182" y="520" fill="#F8FAFC" font-family="Inter, Segoe UI, Arial, sans-serif" font-size="28" font-weight="800">Backend</text>
  <text x="182" y="660" fill="#F8FAFC" font-family="Inter, Segoe UI, Arial, sans-serif" font-size="28" font-weight="800">AI / Cloud / DevOps</text>
  <path d="M420 222H1210M420 362H1210M420 502H1210M420 642H1210" stroke="url(#g)" stroke-opacity="0.45" stroke-width="3" stroke-linecap="round"/>
</svg>
