<svg width="1400" height="700" viewBox="0 0 1400 700" fill="none" xmlns="http://www.w3.org/2000/svg">
  <defs>
    <linearGradient id="bg" x1="0" y1="0" x2="1400" y2="700" gradientUnits="userSpaceOnUse">
      <stop stop-color="#050B14"/>
      <stop offset="1" stop-color="#091423"/>
    </linearGradient>
    <linearGradient id="g" x1="120" y1="72" x2="1300" y2="628" gradientUnits="userSpaceOnUse">
      <stop stop-color="#63E6BE"/>
      <stop offset="0.45" stop-color="#38BDF8"/>
      <stop offset="1" stop-color="#F59E0B"/>
    </linearGradient>
  </defs>
  <rect width="1400" height="700" rx="34" fill="url(#bg)"/>
  <rect x="66" y="68" width="1268" height="564" rx="28" fill="#0B1324" fill-opacity="0.86" stroke="#E2E8F0" stroke-opacity="0.08"/>
  <circle cx="118" cy="118" r="10" fill="#F87171"/>
  <circle cx="152" cy="118" r="10" fill="#F59E0B"/>
  <circle cx="186" cy="118" r="10" fill="#34D399"/>
  <path d="M108 160H1292M108 438H1292" stroke="#E2E8F0" stroke-opacity="0.08"/>
  <text x="108" y="188" fill="#63E6BE" font-family="JetBrains Mono, Consolas, monospace" font-size="26">$ whoami</text>
  <text x="108" y="236" fill="#F8FAFC" font-family="JetBrains Mono, Consolas, monospace" font-size="24">Susatwik Manuri</text>
  <text x="108" y="288" fill="#63E6BE" font-family="JetBrains Mono, Consolas, monospace" font-size="26">$ expertise</text>
  <text x="108" y="336" fill="#C7D2FE" font-family="Inter, Segoe UI, Arial, sans-serif" font-size="20">AI systems, backend engineering, product architecture, automation</text>
  <text x="108" y="390" fill="#63E6BE" font-family="JetBrains Mono, Consolas, monospace" font-size="26">$ roadmap</text>
  <text x="108" y="438" fill="#C7D2FE" font-family="Inter, Segoe UI, Arial, sans-serif" font-size="20">Build intelligent systems that are reliable and commercially useful</text>
  <rect x="108" y="500" width="340" height="18" rx="9" fill="#1D4ED8" fill-opacity="0.72"/>
  <rect x="108" y="530" width="680" height="18" rx="9" fill="#14B8A6" fill-opacity="0.72"/>
  <rect x="840" y="188" width="392" height="240" rx="26" fill="#0F172A" stroke="url(#g)" stroke-opacity="0.22"/>
  <path d="M874 370C922 336 964 324 1014 332C1064 340 1108 362 1202 286" stroke="url(#g)" stroke-width="3" stroke-linecap="round"/>
  <circle cx="924" cy="346" r="8" fill="#63E6BE"/>
  <circle cx="1014" cy="332" r="8" fill="#38BDF8"/>
  <circle cx="1108" cy="362" r="8" fill="#F59E0B"/>
  <text x="874" y="232" fill="#F8FAFC" font-family="Inter, Segoe UI, Arial, sans-serif" font-size="22" font-weight="800">Operating system</text>
  <text x="874" y="262" fill="#93C5FD" font-family="Inter, Segoe UI, Arial, sans-serif" font-size="16">high signal • low noise • shipped work</text>
</svg>
