<svg xmlns="http://www.w3.org/2000/svg" width="1200" height="170" viewBox="0 0 1200 170" role="img" aria-label="LET’S BUILD WHAT’S NEXT.">
  <title>LET’S BUILD WHAT’S NEXT.</title>
  <desc>07 // COMMUNICATION CHANNEL - OPEN FOR FULL-STACK PRODUCT ENGINEERING, AI SYSTEMS &amp; DISTRIBUTED WORK</desc>
  <defs>
    <linearGradient id="hairline-07" x1="0" y1="0" x2="1" y2="0">
      <stop offset="0%" stop-color="#00d2ff" stop-opacity="0.9"/>
      <stop offset="50%" stop-color="#1e293b" stop-opacity="0.3"/>
      <stop offset="100%" stop-color="#00f5a0" stop-opacity="0.9"/>
    </linearGradient>
    <linearGradient id="aurora-07" x1="0" y1="0" x2="1" y2="1">
      <stop offset="0%" stop-color="#ffffff"/>
      <stop offset="40%" stop-color="#e0f2fe"/>
      <stop offset="100%" stop-color="#00d2ff"/>
    </linearGradient>
    <radialGradient id="halo-07" cx="16%" cy="50%" r="65%">
      <stop offset="0%" stop-color="#00d2ff" stop-opacity="0.18"/>
      <stop offset="100%" stop-color="#070b16" stop-opacity="0"/>
    </radialGradient>
    <pattern id="dots-07" width="24" height="24" patternUnits="userSpaceOnUse">
      <circle cx="2" cy="2" r="1.2" fill="#182d49" opacity="0.7"/>
    </pattern>
    <clipPath id="outer-clip-07">
      <rect x="1" y="1" width="1198" height="168" rx="20"/>
    </clipPath>
  </defs>

  <g clip-path="url(#outer-clip-07)">
    <rect x="1" y="1" width="1198" height="168" rx="20" fill="#070b16" stroke="url(#hairline-07)" stroke-width="1.5"/>
    <rect x="2" y="2" width="1196" height="166" rx="19" fill="url(#dots-07)"/>
    <rect x="2" y="2" width="1196" height="166" fill="url(#halo-07)"/>

    <path d="M 44 1 L 44 170" stroke="#193057" stroke-width="1" opacity="0.4"/>
    <path d="M 1156 1 L 1156 170" stroke="#193057" stroke-width="1" opacity="0.4"/>
    <path d="M 42 50 L 1158 50" stroke="#15233c" stroke-width="1" stroke-dasharray="4 4"/>

    <path d="M 14 30 L 14 14 L 30 14" fill="none" stroke="#00d2ff" stroke-width="2.5" opacity="0.9"/>
    <path d="M 1186 30 L 1186 14 L 1170 14" fill="none" stroke="#00f5a0" stroke-width="2.5" opacity="0.9"/>
    <path d="M 14 140 L 14 156 L 30 156" fill="none" stroke="#00d2ff" stroke-width="2.5" opacity="0.9"/>
    <path d="M 1186 140 L 1186 156 L 1170 156" fill="none" stroke="#00f5a0" stroke-width="2.5" opacity="0.9"/>

    <rect x="54" y="20" width="8" height="8" fill="#00d2ff" rx="1.5"/>
    <text x="72" y="28" font-family="ui-monospace, 'SF Mono', Menlo, Consolas, monospace" font-size="11.5" font-weight="600" fill="#94a3b8" letter-spacing="2">07 // COMMUNICATION CHANNEL</text>

    <g transform="translate(870, 16)">
      <rect x="0" y="0" width="210" height="25" rx="5" fill="#0c172a" stroke="#1e365d" stroke-width="1"/>
      <circle cx="14" cy="12.5" r="3.5" fill="#00f5a0"/>
      <text x="26" y="16.5" font-family="ui-monospace, 'SF Mono', Menlo, Consolas, monospace" font-size="10" font-weight="600" fill="#93c5fd" letter-spacing="1">CHANNEL: READY</text>
    </g>

    <path d="M 1100 20 l 8 0 l -6 17 h -8 Z" fill="#00f5a0"/>
    <path d="M 1114 20 l 8 0 l -6 17 h -8 Z" fill="#00f5a0"/>
    <path d="M 1128 20 l 8 0 l -6 17 h -8 Z" fill="#00f5a0"/>

    <text x="54" y="100" font-family="system-ui, -apple-system, BlinkMacSystemFont, 'Segoe UI', Roboto, sans-serif" font-size="38" font-weight="800" fill="url(#aurora-07)" letter-spacing="1.5">LET’S BUILD WHAT’S NEXT.</text>
    <text x="54" y="136" font-family="ui-monospace, 'SF Mono', Menlo, Consolas, monospace" font-size="13" font-weight="500" fill="#94a3b8" letter-spacing="0.6">OPEN FOR FULL-STACK PRODUCT ENGINEERING, AI SYSTEMS &amp; DISTRIBUTED WORK</text>

    <circle cx="1110" cy="108" r="28" fill="none" stroke="#00d2ff" stroke-width="1.5" stroke-dasharray="14 5" opacity="0.45"/>
    <circle cx="1110" cy="108" r="15" fill="none" stroke="#00f5a0" stroke-width="1.5" opacity="0.65"/>
    <circle cx="1110" cy="108" r="4" fill="#f8fafc"/>
  </g>
</svg>