<svg width="1400" height="520" viewBox="0 0 1400 520" fill="none" xmlns="http://www.w3.org/2000/svg">
  <defs>
    <linearGradient id="g" x1="120" y1="90" x2="1280" y2="430" gradientUnits="userSpaceOnUse">
      <stop stop-color="#63E6BE"/>
      <stop offset="0.5" stop-color="#38BDF8"/>
      <stop offset="1" stop-color="#F59E0B"/>
    </linearGradient>
  </defs>
  <rect width="1400" height="520" rx="34" fill="#07111F"/>
  <rect x="28" y="28" width="1344" height="464" rx="30" fill="#0B1324" fill-opacity="0.68" stroke="url(#g)" stroke-opacity="0.22"/>
  <path d="M118 398C258 312 390 278 528 262C662 246 756 272 866 224C976 174 1096 128 1276 98" stroke="url(#g)" stroke-width="5" stroke-linecap="round"/>
  <path d="M118 418C268 350 398 324 534 314C674 304 772 326 868 288C978 244 1100 196 1276 166" stroke="#38BDF8" stroke-opacity="0.18" stroke-width="2" stroke-linecap="round"/>
  <g fill="#0F172A" stroke="url(#g)" stroke-width="2">
    <rect x="96" y="110" width="210" height="92" rx="20"/>
    <rect x="344" y="154" width="210" height="92" rx="20"/>
    <rect x="592" y="198" width="210" height="92" rx="20"/>
    <rect x="840" y="154" width="210" height="92" rx="20"/>
    <rect x="1088" y="110" width="210" height="92" rx="20"/>
  </g>
  <text x="128" y="164" fill="#F8FAFC" font-family="Inter, Segoe UI, Arial, sans-serif" font-size="24" font-weight="800">Algorithmic</text>
  <text x="128" y="192" fill="#93C5FD" font-family="Inter, Segoe UI, Arial, sans-serif" font-size="18" font-weight="600">Thinking</text>
  <text x="374" y="208" fill="#F8FAFC" font-family="Inter, Segoe UI, Arial, sans-serif" font-size="24" font-weight="800">Backend</text>
  <text x="374" y="236" fill="#93C5FD" font-family="Inter, Segoe UI, Arial, sans-serif" font-size="18" font-weight="600">Systems</text>
  <text x="624" y="252" fill="#F8FAFC" font-family="Inter, Segoe UI, Arial, sans-serif" font-size="24" font-weight="800">AI</text>
  <text x="624" y="280" fill="#93C5FD" font-family="Inter, Segoe UI, Arial, sans-serif" font-size="18" font-weight="600">Infrastructure</text>
  <text x="866" y="208" fill="#F8FAFC" font-family="Inter, Segoe UI, Arial, sans-serif" font-size="24" font-weight="800">Intelligent</text>
  <text x="866" y="236" fill="#93C5FD" font-family="Inter, Segoe UI, Arial, sans-serif" font-size="18" font-weight="600">Products</text>
  <text x="1124" y="164" fill="#F8FAFC" font-family="Inter, Segoe UI, Arial, sans-serif" font-size="22" font-weight="800">Business</text>
  <text x="1124" y="192" fill="#93C5FD" font-family="Inter, Segoe UI, Arial, sans-serif" font-size="18" font-weight="600">Impact</text>
</svg>
