<svg width="1400" height="520" viewBox="0 0 1400 520" fill="none" xmlns="http://www.w3.org/2000/svg">
  <defs>
    <linearGradient id="bg" x1="120" y1="90" x2="1280" y2="430" gradientUnits="userSpaceOnUse">
      <stop stop-color="#63E6BE"/>
      <stop offset="0.45" stop-color="#38BDF8"/>
      <stop offset="1" stop-color="#A855F7"/>
    </linearGradient>
    <pattern id="grid" width="48" height="48" patternUnits="userSpaceOnUse">
      <path d="M 48 0 H 0 V 48" stroke="#E2E8F0" stroke-opacity="0.04" stroke-width="1"/>
    </pattern>
  </defs>

  <rect width="1400" height="520" rx="34" fill="#07111F"/>
  <rect width="1400" height="520" rx="34" fill="url(#grid)"/>
  <rect x="28" y="28" width="1344" height="464" rx="30" fill="#0B1324" fill-opacity="0.74" stroke="url(#bg)" stroke-opacity="0.2"/>

  <text x="92" y="118" fill="#93C5FD" font-family="Inter, Segoe UI, Arial, sans-serif" font-size="18" font-weight="700" letter-spacing="2.6">PERSONAL BRAND</text>
  <text x="92" y="166" fill="#F8FAFC" font-family="Inter, Segoe UI, Arial, sans-serif" font-size="46" font-weight="900">From Algorithms to Autonomous Systems</text>
  <text x="92" y="204" fill="#A5B4FC" font-family="Inter, Segoe UI, Arial, sans-serif" font-size="20" font-weight="500">A progression built on correctness, service boundaries, AI workflows, and shipped products.</text>

  <path d="M116 334C240 286 356 264 470 258C600 252 698 278 802 248C920 214 1034 158 1236 112" stroke="url(#bg)" stroke-width="6" stroke-linecap="round"/>
  <path d="M116 356C246 320 364 308 474 304C594 300 696 314 800 284C926 248 1042 206 1236 172" stroke="#38BDF8" stroke-opacity="0.14" stroke-width="2" stroke-linecap="round"/>

  <g fill="#0F172A" stroke="url(#bg)" stroke-width="2">
    <rect x="92" y="246" width="248" height="108" rx="24"/>
    <rect x="410" y="278" width="248" height="108" rx="24"/>
    <rect x="728" y="250" width="248" height="108" rx="24"/>
    <rect x="1046" y="214" width="248" height="108" rx="24"/>
  </g>

  <text x="120" y="286" fill="#F8FAFC" font-family="Inter, Segoe UI, Arial, sans-serif" font-size="24" font-weight="800">Algorithms</text>
  <text x="120" y="320" fill="#C7D2FE" font-family="Inter, Segoe UI, Arial, sans-serif" font-size="17">correctness and speed</text>
  <text x="438" y="318" fill="#F8FAFC" font-family="Inter, Segoe UI, Arial, sans-serif" font-size="24" font-weight="800">Backend systems</text>
  <text x="438" y="352" fill="#C7D2FE" font-family="Inter, Segoe UI, Arial, sans-serif" font-size="17">contracts and data flow</text>
  <text x="756" y="290" fill="#F8FAFC" font-family="Inter, Segoe UI, Arial, sans-serif" font-size="24" font-weight="800">AI products</text>
  <text x="756" y="324" fill="#C7D2FE" font-family="Inter, Segoe UI, Arial, sans-serif" font-size="17">retrieval and guardrails</text>
  <text x="1074" y="254" fill="#F8FAFC" font-family="Inter, Segoe UI, Arial, sans-serif" font-size="24" font-weight="800">Autonomous systems</text>
  <text x="1074" y="288" fill="#C7D2FE" font-family="Inter, Segoe UI, Arial, sans-serif" font-size="17">repeatable outcomes</text>

  <circle cx="340" cy="300" r="7" fill="#63E6BE"/>
  <circle cx="658" cy="324" r="7" fill="#38BDF8"/>
  <circle cx="976" cy="300" r="7" fill="#A855F7"/>
</svg>
