<svg width="1600" height="560" viewBox="0 0 1600 560" fill="none" xmlns="http://www.w3.org/2000/svg">
  <defs>
    <linearGradient id="bg" x1="0" y1="0" x2="1600" y2="560" gradientUnits="userSpaceOnUse">
      <stop stop-color="#030712"/>
      <stop offset="0.55" stop-color="#08111F"/>
      <stop offset="1" stop-color="#0B1B2E"/>
    </linearGradient>
    <radialGradient id="glowA" cx="0" cy="0" r="1" gradientUnits="userSpaceOnUse" gradientTransform="translate(1260 180) rotate(90) scale(220 280)">
      <stop stop-color="#38BDF8" stop-opacity="0.35"/>
      <stop offset="1" stop-color="#38BDF8" stop-opacity="0"/>
    </radialGradient>
    <radialGradient id="glowB" cx="0" cy="0" r="1" gradientUnits="userSpaceOnUse" gradientTransform="translate(290 440) rotate(90) scale(120 220)">
      <stop stop-color="#63E6BE" stop-opacity="0.24"/>
      <stop offset="1" stop-color="#63E6BE" stop-opacity="0"/>
    </radialGradient>
    <linearGradient id="accent" x1="124" y1="88" x2="1460" y2="456" gradientUnits="userSpaceOnUse">
      <stop stop-color="#63E6BE"/>
      <stop offset="0.5" stop-color="#38BDF8"/>
      <stop offset="1" stop-color="#F59E0B"/>
    </linearGradient>
  </defs>
  <rect width="1600" height="560" rx="36" fill="url(#bg)"/>
  <circle cx="1260" cy="180" r="280" fill="url(#glowA)"/>
  <circle cx="290" cy="440" r="220" fill="url(#glowB)"/>
  <g stroke="#E2E8F0" stroke-opacity="0.06">
    <path d="M96 108H1504"/>
    <path d="M96 196H1504"/>
    <path d="M96 284H1504"/>
    <path d="M96 372H1504"/>
    <path d="M96 460H1504"/>
  </g>

  <text x="112" y="152" fill="#F8FAFC" font-family="Inter, Segoe UI, Arial, sans-serif" font-size="58" font-weight="800">Susatwik Manuri</text>
  <text x="112" y="206" fill="#93C5FD" font-family="Inter, Segoe UI, Arial, sans-serif" font-size="26" font-weight="700" letter-spacing="2.4">From Algorithms to Autonomous Systems</text>
  <text x="112" y="250" fill="#C7D2FE" font-family="Inter, Segoe UI, Arial, sans-serif" font-size="22" font-weight="500">AI systems • backend architecture • product engineering</text>

  <g transform="translate(112 306)">
    <rect width="274" height="78" rx="22" fill="#0B1324" fill-opacity="0.84" stroke="#38BDF8" stroke-opacity="0.22"/>
    <text x="24" y="34" fill="#E2E8F0" font-family="JetBrains Mono, Consolas, monospace" font-size="18">Engineering intelligence</text>
    <text x="24" y="58" fill="#93C5FD" font-family="Inter, Segoe UI, Arial, sans-serif" font-size="15">Built for scale, clarity, and leverage</text>
  </g>

  <g transform="translate(402 306)">
    <rect width="220" height="78" rx="22" fill="#0B1324" fill-opacity="0.84" stroke="#63E6BE" stroke-opacity="0.22"/>
    <text x="24" y="34" fill="#E2E8F0" font-family="JetBrains Mono, Consolas, monospace" font-size="18">Production AI</text>
    <text x="24" y="58" fill="#93C5FD" font-family="Inter, Segoe UI, Arial, sans-serif" font-size="15">Systems that ship cleanly</text>
  </g>

  <g transform="translate(1206 116)">
    <rect width="256" height="200" rx="28" fill="#0B1324" fill-opacity="0.84" stroke="#E2E8F0" stroke-opacity="0.08"/>
    <circle cx="128" cy="84" r="62" fill="none" stroke="url(#accent)" stroke-width="3"/>
    <circle cx="128" cy="84" r="28" fill="#0F172A" stroke="#63E6BE" stroke-opacity="0.35"/>
    <path d="M128 34V16M128 152v18M78 84H60M196 84h18M92 48L80 36M164 120l12 12M92 120L80 132M164 48l12-12" stroke="#93C5FD" stroke-opacity="0.55" stroke-width="2" stroke-linecap="round"/>
    <path d="M78 162H178" stroke="#E2E8F0" stroke-opacity="0.1"/>
    <text x="94" y="90" fill="#F8FAFC" font-family="JetBrains Mono, Consolas, monospace" font-size="20" font-weight="700">AI</text>
    <text x="70" y="190" fill="#C7D2FE" font-family="Inter, Segoe UI, Arial, sans-serif" font-size="15">Autonomous systems</text>
  </g>

  <path d="M682 368C784 318 898 294 1022 296C1140 298 1248 330 1400 268" stroke="url(#accent)" stroke-opacity="0.68" stroke-width="3" stroke-linecap="round"/>
  <path d="M682 388C804 362 916 348 1034 350C1162 352 1276 382 1418 340" stroke="#38BDF8" stroke-opacity="0.22" stroke-width="2" stroke-linecap="round"/>
</svg>
